grf
version=1
nRows=19
nColumns=37
inDegrees=no
endheader
time	ground_force_1_vx	ground_force_1_vy	ground_force_1_vz	ground_force_1_px	ground_force_1_py	ground_force_1_pz	ground_moment_1_mx	ground_moment_1_my	ground_moment_1_mz	ground_force_2_vx	ground_force_2_vy	ground_force_2_vz	ground_force_2_px	ground_force_2_py	ground_force_2_pz	ground_moment_2_mx	ground_moment_2_my	ground_moment_2_mz	ground_force_3_vx	ground_force_3_vy	ground_force_3_vz	ground_force_3_px	ground_force_3_py	ground_force_3_pz	ground_moment_3_mx	ground_moment_3_my	ground_moment_3_mz	ground_force_4_vx	ground_force_4_vy	ground_force_4_vz	ground_force_4_px	ground_force_4_py	ground_force_4_pz	ground_moment_4_mx	ground_moment_4_my	ground_moment_4_mz
      0.00000000	      0.00000000	     -0.00000000	      0.00000000	      0.00000000	      0.00000000	      0.00000000	      0.00000000	      0.00000000	      0.00000000	     -1.38959718	     41.02861786	   -365.72686768	   -299.32506326	  -1111.33536329	      0.00000000	      0.00000000	      0.00000000	    608.70194505	     -2.70346587	    -42.88238883	   -350.21652222	   -273.18518583	   -681.44329666	      0.00000000	      0.00000000	     -0.00000000	   -532.48894757	      0.00000000	     -0.00000000	      0.00000000	      0.00000000	      0.00000000	      0.00000000	      0.00000000	      0.00000000	      0.00000000
      0.01000000	      0.00000000	     -0.00000000	      0.00000000	      0.00000000	      0.00000000	      0.00000000	      0.00000000	      0.00000000	      0.00000000	     -1.40389192	     40.97653198	   -367.58599854	   -299.85751957	  -1111.66710314	      0.00000000	      0.00000000	      0.00000000	    424.40454339	     -2.66589940	    -42.35707832	   -348.98605347	   -273.00666455	   -682.06499323	      0.00000000	      0.00000000	     -0.00000000	   -473.90796032	      0.00000000	     -0.00000000	      0.00000000	      0.00000000	      0.00000000	      0.00000000	      0.00000000	      0.00000000	      0.00000000
      0.02000000	      0.00000000	     -0.00000000	      0.00000000	      0.00000000	      0.00000000	      0.00000000	      0.00000000	      0.00000000	      0.00000000	     -0.85473597	     40.58684921	   -366.20941162	   -299.73005902	  -1112.70102309	      0.00000000	      0.00000000	      0.00000000	    623.50088733	     -3.14218651	    -42.13412448	   -346.90988159	   -272.74622667	   -683.21378024	      0.00000000	      0.00000000	     -0.00000000	   -267.63273035	      0.00000000	     -0.00000000	      0.00000000	      0.00000000	      0.00000000	      0.00000000	      0.00000000	      0.00000000	      0.00000000
      0.03000000	      0.00000000	     -0.00000000	      0.00000000	      0.00000000	      0.00000000	      0.00000000	      0.00000000	      0.00000000	      0.00000000	     -0.84501243	     40.57421875	   -365.95352173	   -300.21159252	  -1111.78910267	      0.00000000	      0.00000000	      0.00000000	    487.84880085	     -3.13711129	    -42.08769962	   -347.93914795	   -273.22955700	   -682.14936535	      0.00000000	      0.00000000	     -0.00000000	   -442.06773183	      0.00000000	     -0.00000000	      0.00000000	      0.00000000	      0.00000000	      0.00000000	      0.00000000	      0.00000000	      0.00000000
      0.04000000	      0.00000000	     -0.00000000	      0.00000000	      0.00000000	      0.00000000	      0.00000000	      0.00000000	      0.00000000	      0.00000000	     -1.06542265	     41.13113403	   -367.59970093	   -299.51702560	  -1112.55516509	      0.00000000	      0.00000000	      0.00000000	    621.58182458	     -3.38799013	    -42.43609208	   -347.40588379	   -273.82858581	   -682.90827155	      0.00000000	      0.00000000	     -0.00000000	   -348.95864124	      0.00000000	     -0.00000000	      0.00000000	      0.00000000	      0.00000000	      0.00000000	      0.00000000	      0.00000000	      0.00000000
      0.05000000	      0.00000000	     -0.00000000	      0.00000000	      0.00000000	      0.00000000	      0.00000000	      0.00000000	      0.00000000	      0.00000000	     -0.99176490	     41.04194260	   -367.16159058	   -300.00543909	  -1111.36575054	      0.00000000	      0.00000000	      0.00000000	    618.36201409	     -3.19869029	    -42.16599246	   -347.95968628	   -273.40738500	   -682.31633648	      0.00000000	      0.00000000	     -0.00000000	   -338.59726514	      0.00000000	     -0.00000000	      0.00000000	      0.00000000	      0.00000000	      0.00000000	      0.00000000	      0.00000000	      0.00000000
      0.06000000	      0.00000000	     -0.00000000	      0.00000000	      0.00000000	      0.00000000	      0.00000000	      0.00000000	      0.00000000	      0.00000000	     -1.43811905	     41.17287827	   -366.66464233	   -300.00292622	  -1111.67048266	      0.00000000	      0.00000000	      0.00000000	    491.26676951	     -2.57786475	    -42.09312416	   -347.71368408	   -273.92910270	   -683.49605709	      0.00000000	      0.00000000	     -0.00000000	   -405.39075740	      0.00000000	     -0.00000000	      0.00000000	      0.00000000	      0.00000000	      0.00000000	      0.00000000	      0.00000000	      0.00000000
      0.07000000	      0.00000000	     -0.00000000	      0.00000000	      0.00000000	      0.00000000	      0.00000000	      0.00000000	      0.00000000	      0.00000000	     -1.02867293	     41.05279922	   -367.16323853	   -300.13308500	  -1112.10847085	      0.00000000	      0.00000000	      0.00000000	    452.18850910	     -2.24868759	    -41.92737560	   -346.93502808	   -274.45019638	   -683.08543165	      0.00000000	      0.00000000	     -0.00000000	   -257.84450945	      0.00000000	     -0.00000000	      0.00000000	      0.00000000	      0.00000000	      0.00000000	      0.00000000	      0.00000000	      0.00000000
      0.08000000	      0.00000000	     -0.00000000	      0.00000000	      0.00000000	      0.00000000	      0.00000000	      0.00000000	      0.00000000	      0.00000000	     -0.32634825	     40.42345810	   -366.97628784	   -300.98347113	  -1111.82812662	      0.00000000	      0.00000000	      0.00000000	    624.25978303	     -2.11803057	    -41.19383221	   -346.17297363	   -274.55213226	   -682.80668834	      0.00000000	      0.00000000	     -0.00000000	   -395.05635994	      0.00000000	     -0.00000000	      0.00000000	      0.00000000	      0.00000000	      0.00000000	      0.00000000	      0.00000000	      0.00000000
      0.09000000	      0.00000000	     -0.00000000	      0.00000000	      0.00000000	      0.00000000	      0.00000000	      0.00000000	      0.00000000	      0.00000000	     -0.33247924	     40.38763428	   -366.64657593	   -301.14611910	  -1110.82060407	      0.00000000	      0.00000000	      0.00000000	    391.26335571	     -2.04600569	    -40.45133191	   -343.40176392	   -275.24219230	   -683.22679539	      0.00000000	      0.00000000	     -0.00000000	   -377.90261949	      0.00000000	     -0.00000000	      0.00000000	      0.00000000	      0.00000000	      0.00000000	      0.00000000	      0.00000000	      0.00000000
      0.10000000	      0.00000000	     -0.00000000	      0.00000000	      0.00000000	      0.00000000	      0.00000000	      0.00000000	      0.00000000	      0.00000000	     -0.19615726	     39.84129333	   -365.56463623	   -300.79689063	  -1111.24323727	      0.00000000	      0.00000000	      0.00000000	    445.99927462	     -2.39519471	    -40.26317575	   -340.09646606	   -274.90055575	   -684.31699976	      0.00000000	      0.00000000	     -0.00000000	   -303.14630328	      0.00000000	     -0.00000000	      0.00000000	      0.00000000	      0.00000000	      0.00000000	      0.00000000	      0.00000000	      0.00000000
      0.11000000	      0.00000000	     -0.00000000	      0.00000000	      0.00000000	      0.00000000	      0.00000000	      0.00000000	      0.00000000	      0.00000000	     -0.52920020	     40.15627670	   -365.87042236	   -300.97767624	  -1110.53324867	      0.00000000	      0.00000000	      0.00000000	    432.23220272	     -2.30648389	    -39.83308390	   -338.86334229	   -275.04728495	   -685.01989092	      0.00000000	      0.00000000	     -0.00000000	   -378.21044839	      0.00000000	     -0.00000000	      0.00000000	      0.00000000	      0.00000000	      0.00000000	      0.00000000	      0.00000000	      0.00000000
      0.12000000	      0.00000000	     -0.00000000	      0.00000000	      0.00000000	      0.00000000	      0.00000000	      0.00000000	      0.00000000	      0.00000000	     -0.86297810	     40.34078598	   -366.38742065	   -301.74626078	  -1110.05557114	      0.00000000	      0.00000000	      0.00000000	    538.83833763	     -2.09379638	    -39.62132626	   -338.00265503	   -275.79812299	   -686.10283038	      0.00000000	      0.00000000	     -0.00000000	   -326.34106649	      0.00000000	     -0.00000000	      0.00000000	      0.00000000	      0.00000000	      0.00000000	      0.00000000	      0.00000000	      0.00000000
      0.13000000	      0.00000000	     -0.00000000	      0.00000000	      0.00000000	      0.00000000	      0.00000000	      0.00000000	      0.00000000	      0.00000000	     -0.79657459	     40.26447678	   -366.67587280	   -302.53658160	  -1109.55964865	      0.00000000	      0.00000000	      0.00000000	    439.84470898	     -2.10636366	    -39.56195813	   -339.39974976	   -276.89473768	   -685.84797258	      0.00000000	     -0.00000000	     -0.00000000	   -243.92634527	      0.00000000	     -0.00000000	      0.00000000	      0.00000000	      0.00000000	      0.00000000	      0.00000000	      0.00000000	      0.00000000
      0.14000000	      0.00000000	     -0.00000000	      0.00000000	      0.00000000	      0.00000000	      0.00000000	      0.00000000	      0.00000000	      0.00000000	     -0.25214499	     39.53256607	   -366.13507080	   -302.75297566	  -1108.78111632	      0.00000000	      0.00000000	      0.00000000	    423.65555757	     -1.72035736	    -38.91516861	   -338.95138550	   -278.02200895	   -686.96344085	      0.00000000	      0.00000000	     -0.00000000	   -128.60638240	      0.00000000	     -0.00000000	      0.00000000	      0.00000000	      0.00000000	      0.00000000	      0.00000000	      0.00000000	      0.00000000
      0.15000000	      0.00000000	     -0.00000000	      0.00000000	      0.00000000	      0.00000000	      0.00000000	      0.00000000	      0.00000000	      0.00000000	      0.00000000	     39.03911591	   -364.99841309	   -303.60449080	  -1108.93139619	      0.00000000	      0.00000000	      0.00000000	    322.97635760	     -1.24195441	    -39.08556355	   -341.28302002	   -278.98170327	   -685.92872969	      0.00000000	      0.00000000	     -0.00000000	   -333.91255785	      0.00000000	     -0.00000000	      0.00000000	      0.00000000	      0.00000000	      0.00000000	      0.00000000	      0.00000000	      0.00000000
      0.16000000	      0.00000000	     -0.00000000	      0.00000000	      0.00000000	      0.00000000	      0.00000000	      0.00000000	      0.00000000	      0.00000000	     -0.03450625	     38.86758423	   -367.17053223	   -304.48341662	  -1108.44013171	      0.00000000	      0.00000000	      0.00000000	    435.83624342	     -1.69870426	    -39.69074616	   -340.02172852	   -279.20377109	   -687.43452928	      0.00000000	      0.00000000	      0.00000000	    -94.86842162	      0.00000000	     -0.00000000	      0.00000000	      0.00000000	      0.00000000	      0.00000000	      0.00000000	      0.00000000	      0.00000000
      0.17000000	      0.00000000	     -0.00000000	      0.00000000	      0.00000000	      0.00000000	      0.00000000	      0.00000000	      0.00000000	      0.00000000	     -0.06859525	     39.52590179	   -367.00839233	   -304.33079899	  -1107.56346867	      0.00000000	      0.00000000	      0.00000000	    312.60021839	     -1.43284861	    -39.97562396	   -341.60510254	   -279.20247180	   -686.85920532	      0.00000000	      0.00000000	     -0.00000000	   -193.48783090	      0.00000000	     -0.00000000	      0.00000000	      0.00000000	      0.00000000	      0.00000000	      0.00000000	      0.00000000	      0.00000000
      0.18000000	      0.00000000	     -0.00000000	      0.00000000	      0.00000000	      0.00000000	      0.00000000	      0.00000000	      0.00000000	      0.00000000	     -0.29473481	     39.90334320	   -369.09719849	   -304.85196299	  -1108.31650838	      0.00000000	      0.00000000	      0.00000000	    285.03024019	     -1.18730229	    -40.24077977	   -341.57733154	   -279.34453472	   -687.42679183	      0.00000000	      0.00000000	     -0.00000000	   -157.63862377	      0.00000000	     -0.00000000	      0.00000000	      0.00000000	      0.00000000	      0.00000000	      0.00000000	      0.00000000	      0.00000000
